{
  "accessors": [
    {
      "name": "Object.1-Mesh_0_positions",
      "componentType": 5126,
      "count": 25092,
      "min": [
        0.01549999974668026,
        -55.60601043701172,
        1.600000023841858
      ],
      "max": [
        75.02350616455078,
        -2.3080060482025146,
        16
      ],
      "type": "VEC3",
      "bufferView": 0,
      "byteOffset": 0
    },
    {
      "name": "Object.1-Mesh_0_indices",
      "componentType": 5123,
      "count": 112590,
      "min": [
        0
      ],
      "max": [
        25091
      ],
      "type": "SCALAR",
      "bufferView": 2,
      "byteOffset": 0
    },
    {
      "name": "Object.1-Mesh_1_positions",
      "componentType": 5126,
      "count": 1677,
      "min": [
        0.6395000219345093,
        -54.66400909423828,
        5.099999904632568
      ],
      "max": [
        29.64750099182129,
        -22.880008697509766,
        16.100000381469727
      ],
      "type": "VEC3",
      "bufferView": 0,
      "byteOffset": 301104
    },
    {
      "name": "Object.1-Mesh_1_indices",
      "componentType": 5123,
      "count": 8502,
      "min": [
        0
      ],
      "max": [
        1676
      ],
      "type": "SCALAR",
      "bufferView": 2,
      "byteOffset": 225180
    },
    {
      "name": "Object.1-Mesh_2_positions",
      "componentType": 5126,
      "count": 3950,
      "min": [
        0.01549999974668026,
        -27.294008255004883,
        1.784000039100647
      ],
      "max": [
        16.215499877929688,
        -12.346007347106934,
        16
      ],
      "type": "VEC3",
      "bufferView": 0,
      "byteOffset": 321228
    },
    {
      "name": "Object.1-Mesh_2_indices",
      "componentType": 5123,
      "count": 18678,
      "min": [
        0
      ],
      "max": [
        3949
      ],
      "type": "SCALAR",
      "bufferView": 2,
      "byteOffset": 242184
    },
    {
      "name": "Object.1-Mesh_3_positions",
      "componentType": 5126,
      "count": 4791,
      "min": [
        2.5394999980926514,
        -52.66000747680664,
        0
      ],
      "max": [
        15.137500762939453,
        -45.410011291503906,
        13.500001907348633
      ],
      "type": "VEC3",
      "bufferView": 0,
      "byteOffset": 368628
    },
    {
      "name": "Object.1-Mesh_3_indices",
      "componentType": 5123,
      "count": 27957,
      "min": [
        0
      ],
      "max": [
        4790
      ],
      "type": "SCALAR",
      "bufferView": 2,
      "byteOffset": 279540
    },
    {
      "name": "Object.1-Mesh_4_positions",
      "componentType": 5126,
      "count": 296,
      "min": [
        1.315500020980835,
        -21.670007705688477,
        8.770000457763672
      ],
      "max": [
        9.013500213623047,
        -17.970008850097656,
        12.62600040435791
      ],
      "type": "VEC3",
      "bufferView": 0,
      "byteOffset": 426120
    },
    {
      "name": "Object.1-Mesh_4_indices",
      "componentType": 5123,
      "count": 1296,
      "min": [
        0
      ],
      "max": [
        295
      ],
      "type": "SCALAR",
      "bufferView": 2,
      "byteOffset": 335456
    },
    {
      "name": "Object.1-Mesh_5_positions",
      "componentType": 5126,
      "count": 1772,
      "min": [
        9.589500427246094,
        -42.582008361816406,
        5.099999904632568
      ],
      "max": [
        73.91950988769531,
        -3.884006977081299,
        7.900001049041748
      ],
      "type": "VEC3",
      "bufferView": 0,
      "byteOffset": 429672
    },
    {
      "name": "Object.1-Mesh_5_indices",
      "componentType": 5123,
      "count": 8004,
      "min": [
        0
      ],
      "max": [
        1771
      ],
      "type": "SCALAR",
      "bufferView": 2,
      "byteOffset": 338048
    },
    {
      "name": "Object.1-Mesh_6_positions",
      "componentType": 5126,
      "count": 570,
      "min": [
        8.529500007629395,
        -41.858009338378906,
        5.099999904632568
      ],
      "max": [
        22.993499755859375,
        -29.66400909423828,
        5.8480000495910645
      ],
      "type": "VEC3",
      "bufferView": 0,
      "byteOffset": 450936
    },
    {
      "name": "Object.1-Mesh_6_indices",
      "componentType": 5123,
      "count": 3150,
      "min": [
        0
      ],
      "max": [
        569
      ],
      "type": "SCALAR",
      "bufferView": 2,
      "byteOffset": 354056
    },
    {
      "name": "Object.1-Mesh_7_positions",
      "componentType": 5126,
      "count": 2720,
      "min": [
        24.25149917602539,
        -54.60000991821289,
        5.099999904632568
      ],
      "max": [
        71.2455062866211,
        -3.8040080070495605,
        13.600000381469727
      ],
      "type": "VEC3",
      "bufferView": 0,
      "byteOffset": 457776
    },
    {
      "name": "Object.1-Mesh_7_indices",
      "componentType": 5123,
      "count": 11712,
      "min": [
        0
      ],
      "max": [
        2719
      ],
      "type": "SCALAR",
      "bufferView": 2,
      "byteOffset": 360356
    },
    {
      "name": "Object.1-Mesh_8_positions",
      "componentType": 5126,
      "count": 230,
      "min": [
        24.797500610351562,
        -53.86001205444336,
        5.099999904632568
      ],
      "max": [
        30.09749984741211,
        -52.36001205444336,
        6.323999881744385
      ],
      "type": "VEC3",
      "bufferView": 0,
      "byteOffset": 490416
    },
    {
      "name": "Object.1-Mesh_8_indices",
      "componentType": 5123,
      "count": 1158,
      "min": [
        0
      ],
      "max": [
        229
      ],
      "type": "SCALAR",
      "bufferView": 2,
      "byteOffset": 383780
    },
    {
      "name": "Object.1-Mesh_9_positions",
      "componentType": 5126,
      "count": 333,
      "min": [
        2.5394999980926514,
        -52.66000747680664,
        8.697999954223633
      ],
      "max": [
        12.457500457763672,
        -46.510009765625,
        12.398000717163086
      ],
      "type": "VEC3",
      "bufferView": 0,
      "byteOffset": 493176
    },
    {
      "name": "Object.1-Mesh_9_indices",
      "componentType": 5123,
      "count": 1662,
      "min": [
        0
      ],
      "max": [
        332
      ],
      "type": "SCALAR",
      "bufferView": 2,
      "byteOffset": 386096
    },
    {
      "name": "Object.1-Mesh_10_positions",
      "componentType": 5126,
      "count": 535,
      "min": [
        14.795500755310059,
        -48.49000930786133,
        5.099999904632568
      ],
      "max": [
        67.43550872802734,
        -12.598007202148438,
        7.099999904632568
      ],
      "type": "VEC3",
      "bufferView": 0,
      "byteOffset": 497172
    },
    {
      "name": "Object.1-Mesh_10_indices",
      "componentType": 5123,
      "count": 1935,
      "min": [
        0
      ],
      "max": [
        534
      ],
      "type": "SCALAR",
      "bufferView": 2,
      "byteOffset": 389420
    },
    {
      "name": "Object.1-Mesh_11_positions",
      "componentType": 5126,
      "count": 1231,
      "min": [
        14.495499610900879,
        -41.136009216308594,
        5.099999904632568
      ],
      "max": [
        67.43950653076172,
        -12.598007202148438,
        5.5
      ],
      "type": "VEC3",
      "bufferView": 0,
      "byteOffset": 503592
    },
    {
      "name": "Object.1-Mesh_11_indices",
      "componentType": 5123,
      "count": 4809,
      "min": [
        0
      ],
      "max": [
        1230
      ],
      "type": "SCALAR",
      "bufferView": 2,
      "byteOffset": 393292
    },
    {
      "name": "Object.1-Mesh_12_positions",
      "componentType": 5126,
      "count": 431,
      "min": [
        14.545500755310059,
        -41.084007263183594,
        5.099999904632568
      ],
      "max": [
        67.43550872802734,
        -12.598007202148438,
        5.447999954223633
      ],
      "type": "VEC3",
      "bufferView": 0,
      "byteOffset": 518364
    },
    {
      "name": "Object.1-Mesh_12_indices",
      "componentType": 5123,
      "count": 1137,
      "min": [
        0
      ],
      "max": [
        430
      ],
      "type": "SCALAR",
      "bufferView": 2,
      "byteOffset": 402912
    },
    {
      "name": "Object.1-Mesh_13_positions",
      "componentType": 5126,
      "count": 1312,
      "min": [
        9.05150032043457,
        -42.17401123046875,
        5.199999809265137
      ],
      "max": [
        22.47349739074707,
        -29.360008239746094,
        6.098001003265381
      ],
      "type": "VEC3",
      "bufferView": 0,
      "byteOffset": 523536
    },
    {
      "name": "Object.1-Mesh_13_indices",
      "componentType": 5123,
      "count": 7812,
      "min": [
        0
      ],
      "max": [
        1311
      ],
      "type": "SCALAR",
      "bufferView": 2,
      "byteOffset": 405188
    },
    {
      "name": "Object.1-Mesh_14_positions",
      "componentType": 5126,
      "count": 2473,
      "min": [
        17.885499954223633,
        -48.34001159667969,
        5.099999904632568
      ],
      "max": [
        31.385499954223633,
        -43.34001159667969,
        11.300000190734863
      ],
      "type": "VEC3",
      "bufferView": 0,
      "byteOffset": 539280
    },
    {
      "name": "Object.1-Mesh_14_indices",
      "componentType": 5123,
      "count": 14175,
      "min": [
        0
      ],
      "max": [
        2472
      ],
      "type": "SCALAR",
      "bufferView": 2,
      "byteOffset": 420812
    },
    {
      "name": "Object.1-Mesh_15_positions",
      "componentType": 5126,
      "count": 84,
      "min": [
        21.5054988861084,
        -48.160011291503906,
        5.099999904632568
      ],
      "max": [
        31.385499954223633,
        -43.522010803222656,
        11.320000648498535
      ],
      "type": "VEC3",
      "bufferView": 0,
      "byteOffset": 568956
    },
    {
      "name": "Object.1-Mesh_15_indices",
      "componentType": 5123,
      "count": 330,
      "min": [
        0
      ],
      "max": [
        83
      ],
      "type": "SCALAR",
      "bufferView": 2,
      "byteOffset": 449164
    },
    {
      "name": "Object.1-Mesh_16_positions",
      "componentType": 5126,
      "count": 72,
      "min": [
        11.039499282836914,
        -8.482009887695312,
        6.949999809265137
      ],
      "max": [
        14.041500091552734,
        -5.482008934020996,
        8.100000381469727
      ],
      "type": "VEC3",
      "bufferView": 0,
      "byteOffset": 569964
    },
    {
      "name": "Object.1-Mesh_16_indices",
      "componentType": 5123,
      "count": 318,
      "min": [
        0
      ],
      "max": [
        71
      ],
      "type": "SCALAR",
      "bufferView": 2,
      "byteOffset": 449824
    },
    {
      "name": "Object.1-Mesh_17_positions",
      "componentType": 5126,
      "count": 9278,
      "min": [
        6.487500190734863,
        -55.60601043701172,
        5.099999904632568
      ],
      "max": [
        75.02350616455078,
        -2.3080060482025146,
        5.099999904632568
      ],
      "type": "VEC3",
      "bufferView": 0,
      "byteOffset": 570828
    },
    {
      "name": "Object.1-Mesh_17_texcoords",
      "componentType": 5126,
      "count": 9278,
      "min": [
        0,
        0
      ],
      "max": [
        1,
        1
      ],
      "type": "VEC2",
      "bufferView": 1,
      "byteOffset": 0
    },
    {
      "name": "Object.1-Mesh_17_indices",
      "componentType": 5123,
      "count": 29718,
      "min": [
        0
      ],
      "max": [
        9277
      ],
      "type": "SCALAR",
      "bufferView": 2,
      "byteOffset": 450460
    },
    {
      "name": "Object.1-Mesh_18_positions",
      "componentType": 5126,
      "count": 5379,
      "min": [
        6.487500190734863,
        -55.60601043701172,
        3.5
      ],
      "max": [
        75.02350616455078,
        -2.3080060482025146,
        3.5
      ],
      "type": "VEC3",
      "bufferView": 0,
      "byteOffset": 682164
    },
    {
      "name": "Object.1-Mesh_18_texcoords",
      "componentType": 5126,
      "count": 5379,
      "min": [
        0,
        0
      ],
      "max": [
        1,
        1
      ],
      "type": "VEC2",
      "bufferView": 1,
      "byteOffset": 74224
    },
    {
      "name": "Object.1-Mesh_18_indices",
      "componentType": 5123,
      "count": 16971,
      "min": [
        0
      ],
      "max": [
        5378
      ],
      "type": "SCALAR",
      "bufferView": 2,
      "byteOffset": 509896
    }
  ],
  "asset": {
    "generator": "obj2gltf",
    "version": "2.0"
  },
  "buffers": [
    {
      "name": "MyObject",
      "byteLength": 2210636,
      "uri": "data:application/octet-stream;base64,"
    }
  ],
  "bufferViews": [
    {
      "name": "bufferView_0",
      "buffer": 0,
      "byteLength": 746712,
      "byteOffset": 0,
      "byteStride": 12,
      "target": 34962
    },
    {
      "name": "bufferView_1",
      "buffer": 0,
      "byteLength": 117256,
      "byteOffset": 746712,
      "byteStride": 8,
      "target": 34962
    },
    {
      "name": "bufferView_2",
      "buffer": 0,
      "byteLength": 543840,
      "byteOffset": 863968,
      "target": 34963
    },
    {
      "buffer": 0,
      "byteOffset": 1407808,
      "byteLength": 499303
    },
    {
      "buffer": 0,
      "byteOffset": 1907111,
      "byteLength": 303523
    }
  ],
  "images": [
    {
      "name": "Arduino UNO Rev.3 (CH340) top-CAWEB.ORG",
      "mimeType": "image/png",
      "bufferView": 3
    },
    {
      "name": "Arduino UNO Rev.3 (CH340) bottom-CAWEB.ORG",
      "mimeType": "image/png",
      "bufferView": 4
    }
  ],
  "materials": [
    {
      "name": "Material_1_0",
      "pbrMetallicRoughness": {
        "baseColorFactor": [
          0.627451,
          0.627451,
          0.627451,
          1
        ],
        "metallicFactor": 0,
        "roughnessFactor": 1
      },
      "emissiveFactor": [
        0,
        0,
        0
      ],
      "alphaMode": "OPAQUE",
      "doubleSided": false
    },
    {
      "name": "Material_5_0",
      "pbrMetallicRoughness": {
        "baseColorFactor": [
          0.25098,
          0.25098,
          0.25098,
          1
        ],
        "metallicFactor": 0,
        "roughnessFactor": 1
      },
      "emissiveFactor": [
        0,
        0,
        0
      ],
      "alphaMode": "OPAQUE",
      "doubleSided": false
    },
    {
      "name": "Material_2_0",
      "pbrMetallicRoughness": {
        "baseColorFactor": [
          0.792157,
          0.819608,
          0.933333,
          1
        ],
        "metallicFactor": 0,
        "roughnessFactor": 1
      },
      "emissiveFactor": [
        0,
        0,
        0
      ],
      "alphaMode": "OPAQUE",
      "doubleSided": false
    },
    {
      "name": "Material_4_0",
      "pbrMetallicRoughness": {
        "baseColorFactor": [
          0.568627,
          0.54902,
          0.509804,
          1
        ],
        "metallicFactor": 0,
        "roughnessFactor": 1
      },
      "emissiveFactor": [
        0,
        0,
        0
      ],
      "alphaMode": "OPAQUE",
      "doubleSided": false
    },
    {
      "name": "Material_3_0",
      "pbrMetallicRoughness": {
        "baseColorFactor": [
          1,
          1,
          0,
          1
        ],
        "metallicFactor": 0,
        "roughnessFactor": 1
      },
      "emissiveFactor": [
        0,
        0,
        0
      ],
      "alphaMode": "OPAQUE",
      "doubleSided": false
    },
    {
      "name": "Material_8_0",
      "pbrMetallicRoughness": {
        "baseColorFactor": [
          0,
          0,
          0,
          1
        ],
        "metallicFactor": 0,
        "roughnessFactor": 1
      },
      "emissiveFactor": [
        0,
        0,
        0
      ],
      "alphaMode": "OPAQUE",
      "doubleSided": false
    },
    {
      "name": "Material_16_0",
      "pbrMetallicRoughness": {
        "baseColorFactor": [
          0.752941,
          0.752941,
          0.752941,
          1
        ],
        "metallicFactor": 0,
        "roughnessFactor": 1
      },
      "emissiveFactor": [
        0,
        0,
        0
      ],
      "alphaMode": "OPAQUE",
      "doubleSided": false
    },
    {
      "name": "Material_7_0",
      "pbrMetallicRoughness": {
        "baseColorFactor": [
          0.223529,
          0.223529,
          0.223529,
          1
        ],
        "metallicFactor": 0,
        "roughnessFactor": 1
      },
      "emissiveFactor": [
        0,
        0,
        0
      ],
      "alphaMode": "OPAQUE",
      "doubleSided": false
    },
    {
      "name": "Material_9_0",
      "pbrMetallicRoughness": {
        "baseColorFactor": [
          0.733333,
          0.733333,
          0.733333,
          1
        ],
        "metallicFactor": 0,
        "roughnessFactor": 1
      },
      "emissiveFactor": [
        0,
        0,
        0
      ],
      "alphaMode": "OPAQUE",
      "doubleSided": false
    },
    {
      "name": "Material_6_0",
      "pbrMetallicRoughness": {
        "baseColorFactor": [
          0.686275,
          0.607843,
          0.529412,
          1
        ],
        "metallicFactor": 0,
        "roughnessFactor": 1
      },
      "emissiveFactor": [
        0,
        0,
        0
      ],
      "alphaMode": "OPAQUE",
      "doubleSided": false
    },
    {
      "name": "Material_11_0",
      "pbrMetallicRoughness": {
        "baseColorFactor": [
          0.098039,
          0.098039,
          0.098039,
          1
        ],
        "metallicFactor": 0,
        "roughnessFactor": 1
      },
      "emissiveFactor": [
        0,
        0,
        0
      ],
      "alphaMode": "OPAQUE",
      "doubleSided": false
    },
    {
      "name": "Material_12_0",
      "pbrMetallicRoughness": {
        "baseColorFactor": [
          0.768627,
          0.768627,
          0.768627,
          1
        ],
        "metallicFactor": 0,
        "roughnessFactor": 1
      },
      "emissiveFactor": [
        0,
        0,
        0
      ],
      "alphaMode": "OPAQUE",
      "doubleSided": false
    },
    {
      "name": "Material_10_0",
      "pbrMetallicRoughness": {
        "baseColorFactor": [
          1,
          1,
          1,
          1
        ],
        "metallicFactor": 0,
        "roughnessFactor": 1
      },
      "emissiveFactor": [
        0,
        0,
        0
      ],
      "alphaMode": "OPAQUE",
      "doubleSided": false
    },
    {
      "name": "Material_15_0",
      "pbrMetallicRoughness": {
        "baseColorFactor": [
          0.117647,
          0.117647,
          0.117647,
          1
        ],
        "metallicFactor": 0,
        "roughnessFactor": 1
      },
      "emissiveFactor": [
        0,
        0,
        0
      ],
      "alphaMode": "OPAQUE",
      "doubleSided": false
    },
    {
      "name": "Material_13_0",
      "pbrMetallicRoughness": {
        "baseColorFactor": [
          0.894118,
          0.913725,
          0.929412,
          1
        ],
        "metallicFactor": 0,
        "roughnessFactor": 1
      },
      "emissiveFactor": [
        0,
        0,
        0
      ],
      "alphaMode": "OPAQUE",
      "doubleSided": false
    },
    {
      "name": "Material_14_0",
      "pbrMetallicRoughness": {
        "baseColorFactor": [
          0.6,
          0.6,
          0.6,
          1
        ],
        "metallicFactor": 0,
        "roughnessFactor": 1
      },
      "emissiveFactor": [
        0,
        0,
        0
      ],
      "alphaMode": "OPAQUE",
      "doubleSided": false
    },
    {
      "name": "Material_17_0",
      "pbrMetallicRoughness": {
        "baseColorFactor": [
          1,
          0.827451,
          0,
          1
        ],
        "metallicFactor": 0,
        "roughnessFactor": 1
      },
      "emissiveFactor": [
        0,
        0,
        0
      ],
      "alphaMode": "OPAQUE",
      "doubleSided": false
    },
    {
      "name": "Mat_0",
      "pbrMetallicRoughness": {
        "baseColorTexture": {
          "index": 0
        },
        "baseColorFactor": [
          1,
          1,
          1,
          1
        ],
        "metallicFactor": 0,
        "roughnessFactor": 1
      },
      "emissiveFactor": [
        0,
        0,
        0
      ],
      "alphaMode": "OPAQUE",
      "doubleSided": false
    },
    {
      "name": "Mat_1",
      "pbrMetallicRoughness": {
        "baseColorTexture": {
          "index": 1
        },
        "baseColorFactor": [
          1,
          1,
          1,
          1
        ],
        "metallicFactor": 0,
        "roughnessFactor": 1
      },
      "emissiveFactor": [
        0,
        0,
        0
      ],
      "alphaMode": "OPAQUE",
      "doubleSided": false
    }
  ],
  "meshes": [
    {
      "name": "Object.1-Mesh",
      "primitives": [
        {
          "attributes": {
            "POSITION": 0
          },
          "indices": 1,
          "material": 0,
          "mode": 4
        },
        {
          "attributes": {
            "POSITION": 2
          },
          "indices": 3,
          "material": 1,
          "mode": 4
        },
        {
          "attributes": {
            "POSITION": 4
          },
          "indices": 5,
          "material": 2,
          "mode": 4
        },
        {
          "attributes": {
            "POSITION": 6
          },
          "indices": 7,
          "material": 3,
          "mode": 4
        },
        {
          "attributes": {
            "POSITION": 8
          },
          "indices": 9,
          "material": 4,
          "mode": 4
        },
        {
          "attributes": {
            "POSITION": 10
          },
          "indices": 11,
          "material": 5,
          "mode": 4
        },
        {
          "attributes": {
            "POSITION": 12
          },
          "indices": 13,
          "material": 6,
          "mode": 4
        },
        {
          "attributes": {
            "POSITION": 14
          },
          "indices": 15,
          "material": 7,
          "mode": 4
        },
        {
          "attributes": {
            "POSITION": 16
          },
          "indices": 17,
          "material": 8,
          "mode": 4
        },
        {
          "attributes": {
            "POSITION": 18
          },
          "indices": 19,
          "material": 9,
          "mode": 4
        },
        {
          "attributes": {
            "POSITION": 20
          },
          "indices": 21,
          "material": 10,
          "mode": 4
        },
        {
          "attributes": {
            "POSITION": 22
          },
          "indices": 23,
          "material": 11,
          "mode": 4
        },
        {
          "attributes": {
            "POSITION": 24
          },
          "indices": 25,
          "material": 12,
          "mode": 4
        },
        {
          "attributes": {
            "POSITION": 26
          },
          "indices": 27,
          "material": 13,
          "mode": 4
        },
        {
          "attributes": {
            "POSITION": 28
          },
          "indices": 29,
          "material": 14,
          "mode": 4
        },
        {
          "attributes": {
            "POSITION": 30
          },
          "indices": 31,
          "material": 15,
          "mode": 4
        },
        {
          "attributes": {
            "POSITION": 32
          },
          "indices": 33,
          "material": 16,
          "mode": 4
        },
        {
          "attributes": {
            "POSITION": 34,
            "TEXCOORD_0": 35
          },
          "indices": 36,
          "material": 17,
          "mode": 4
        },
        {
          "attributes": {
            "POSITION": 37,
            "TEXCOORD_0": 38
          },
          "indices": 39,
          "material": 18,
          "mode": 4
        }
      ]
    }
  ],
  "nodes": [
    {
      "name": "Object.1",
      "mesh": 0
    }
  ],
  "samplers": [
    {
      "wrapS": 10497,
      "wrapT": 10497
    }
  ],
  "scene": 0,
  "scenes": [
    {
      "nodes": [
        0
      ]
    }
  ],
  "textures": [
    {
      "name": "Arduino UNO Rev.3 (CH340) top-CAWEB.ORG",
      "sampler": 0,
      "source": 0
    },
    {
      "name": "Arduino UNO Rev.3 (CH340) bottom-CAWEB.ORG",
      "sampler": 0,
      "source": 1
    }
  ]
}
